<?xml version="1.0" encoding="UTF-8"?>
<!DOCTYPE svg PUBLIC "-//W3C//DTD SVG 1.1//EN" "http://www.w3.org/Graphics/SVG/1.1/DTD/svg11.dtd">
<svg xmlns="http://www.w3.org/2000/svg" version="1.1" width="3813px" height="880px" style="shape-rendering:geometricPrecision; text-rendering:geometricPrecision; image-rendering:optimizeQuality; fill-rule:evenodd; clip-rule:evenodd" xmlns:xlink="http://www.w3.org/1999/xlink">
<g><path style="opacity:0.997" fill="#2f3633" d="M 3400.5,271.5 C 3400.5,265.833 3400.5,260.167 3400.5,254.5C 3373.27,257.12 3347.93,265.454 3324.5,279.5C 3312.05,286.723 3300.71,295.39 3290.5,305.5C 3275.91,318.919 3263.75,334.252 3254,351.5C 3251.55,356.068 3249.38,360.735 3247.5,365.5C 3238.61,383.394 3233.27,402.394 3231.5,422.5C 3225.52,504.028 3256.52,567.194 3324.5,612C 3345.01,624.225 3367.01,632.391 3390.5,636.5C 3412.66,640.658 3434.66,640.325 3456.5,635.5C 3464.88,634.628 3472.88,632.628 3480.5,629.5C 3488.42,627.647 3495.75,624.647 3502.5,620.5C 3514.52,615.32 3525.85,608.82 3536.5,601C 3537.71,599.961 3538.71,598.794 3539.5,597.5C 3553.85,586.814 3566.19,574.147 3576.5,559.5C 3589.56,542.38 3599.23,523.38 3605.5,502.5C 3617.65,463.474 3617.48,424.474 3605,385.5C 3599.47,371.443 3593.14,357.776 3586,344.5C 3583.99,334.349 3587.16,326.182 3595.5,320C 3606.93,311.964 3617.93,303.464 3628.5,294.5C 3639.62,286.551 3650.62,278.384 3661.5,270C 3674.2,261.89 3685.37,263.724 3695,275.5C 3751.36,371.607 3758.36,471.273 3716,574.5C 3670.54,671.29 3596.04,733.123 3492.5,760C 3370.72,782.733 3267.89,749.567 3184,660.5C 3107.3,569.998 3084.3,466.998 3115,351.5C 3153.05,239.454 3228.88,166.954 3342.5,134C 3361.52,129.068 3380.86,126.235 3400.5,125.5C 3400.33,102.164 3400.5,78.831 3401,55.5C 3404.89,43.6039 3413.06,38.1039 3425.5,39C 3429.54,39.8993 3433.2,41.566 3436.5,44C 3492.88,86.7183 3549.55,129.052 3606.5,171C 3618.89,184.044 3618.22,196.377 3604.5,208C 3546.54,251.388 3488.87,294.388 3431.5,337C 3418.44,341.121 3408.6,337.288 3402,325.5C 3400.55,307.556 3400.05,289.556 3400.5,271.5 Z"/></g>
<g><path style="opacity:0.997" fill="#2f3532" d="M 395.5,109.5 C 479.03,104.543 555.03,125.709 623.5,173C 689.037,221.742 730.037,286.242 746.5,366.5C 690.496,366.833 634.496,366.5 578.5,365.5C 546.642,298.628 493.475,264.295 419,262.5C 353.641,263.995 303.974,292.328 270,347.5C 244.994,394.642 240.661,443.642 257,494.5C 280.87,558.045 326.37,595.545 393.5,607C 454.597,614.638 506.43,596.471 549,552.5C 561.04,538.278 570.873,522.611 578.5,505.5C 634.496,504.5 690.496,504.167 746.5,504.5C 727.367,595.439 678.367,665.272 599.5,714C 528.939,754.112 453.273,769.112 372.5,759C 271.025,745.55 191.858,696.716 135,612.5C 95.4198,546.948 79.4198,475.948 87,399.5C 99.8885,290.803 153.055,208.636 246.5,153C 293.055,127.449 342.722,112.949 395.5,109.5 Z"/></g>
<g><path style="opacity:0.997" fill="#2f3532" d="M 759.5,120.5 C 819.837,120.167 880.17,120.5 940.5,121.5C 985.913,205.327 1031.58,288.993 1077.5,372.5C 1107.77,319.694 1136.61,266.028 1164,211.5C 1177.31,182.61 1184.47,152.276 1185.5,120.5C 1241.5,120.5 1297.5,120.5 1353.5,120.5C 1353.8,149.514 1348.63,177.514 1338,204.5C 1326.19,233.122 1312.52,260.789 1297,287.5C 1249.33,371.5 1201.67,455.5 1154,539.5C 1153.5,609.833 1153.33,680.166 1153.5,750.5C 1101.17,750.5 1048.83,750.5 996.5,750.5C 996.667,679.833 996.5,609.166 996,538.5C 916.89,399.274 838.056,259.941 759.5,120.5 Z"/></g>
<g><path style="opacity:0.997" fill="#2f3532" d="M 1411.5,120.5 C 1464.17,120.5 1516.83,120.5 1569.5,120.5C 1569.33,203.167 1569.5,285.834 1570,368.5C 1633.03,286.309 1695.86,203.976 1758.5,121.5C 1823.17,120.167 1887.83,120.167 1952.5,121.5C 1876.59,216.985 1800.93,312.651 1725.5,408.5C 1761.75,460.252 1798.59,511.585 1836,562.5C 1857.04,584.772 1882.88,597.606 1913.5,601C 1927.16,601.5 1940.83,601.667 1954.5,601.5C 1954.5,651.167 1954.5,700.833 1954.5,750.5C 1930.16,750.667 1905.83,750.5 1881.5,750C 1823.56,747.588 1772.56,727.922 1728.5,691C 1718.93,682.102 1710.1,672.602 1702,662.5C 1674.61,622.105 1647.61,581.438 1621,540.5C 1604,561.833 1587,583.167 1570,604.5C 1569.5,653.166 1569.33,701.832 1569.5,750.5C 1516.83,750.5 1464.17,750.5 1411.5,750.5C 1411.5,540.5 1411.5,330.5 1411.5,120.5 Z"/></g>
<g><path style="opacity:0.998" fill="#2f3532" d="M 2023.5,120.5 C 2164.5,120.5 2305.5,120.5 2446.5,120.5C 2446.5,170.167 2446.5,219.833 2446.5,269.5C 2358.17,269.5 2269.83,269.5 2181.5,269.5C 2181.5,299.5 2181.5,329.5 2181.5,359.5C 2259.83,359.333 2338.17,359.5 2416.5,360C 2417.16,384.595 2417.5,409.262 2417.5,434C 2417.5,458.738 2417.16,483.405 2416.5,508C 2338.17,508.5 2259.83,508.667 2181.5,508.5C 2181.5,539.5 2181.5,570.5 2181.5,601.5C 2271.17,601.5 2360.83,601.5 2450.5,601.5C 2450.5,651.167 2450.5,700.833 2450.5,750.5C 2308.17,750.5 2165.83,750.5 2023.5,750.5C 2023.5,540.5 2023.5,330.5 2023.5,120.5 Z"/></g>
<g><path style="opacity:0.997" fill="#2f3532" d="M 2534.5,120.5 C 2636.83,120.333 2739.17,120.5 2841.5,121C 2906.28,126.135 2959.44,153.302 3001,202.5C 3041.89,257.618 3055.23,318.951 3041,386.5C 3025.39,444.933 2991.22,488.767 2938.5,518C 2928.95,522.608 2919.28,526.941 2909.5,531C 2918.3,543.435 2927.47,555.602 2937,567.5C 2956.93,587.493 2981.1,598.66 3009.5,601C 3023.83,601.5 3038.16,601.667 3052.5,601.5C 3052.5,651.167 3052.5,700.833 3052.5,750.5C 3028.16,750.667 3003.83,750.5 2979.5,750C 2923.07,747.864 2873.07,729.198 2829.5,694C 2810.12,676.723 2793.96,656.89 2781,634.5C 2764.33,605.167 2747.67,575.833 2731,546.5C 2718.25,545.511 2705.41,545.178 2692.5,545.5C 2692.5,613.833 2692.5,682.167 2692.5,750.5C 2639.83,750.5 2587.17,750.5 2534.5,750.5C 2534.5,540.5 2534.5,330.5 2534.5,120.5 Z M 2692.5,269.5 C 2736.5,269.333 2780.5,269.5 2824.5,270C 2862.14,276.982 2882.14,299.648 2884.5,338C 2883.21,369.938 2867.88,391.938 2838.5,404C 2833.59,405.476 2828.59,406.476 2823.5,407C 2779.83,407.5 2736.17,407.667 2692.5,407.5C 2692.5,361.5 2692.5,315.5 2692.5,269.5 Z"/></g>
<g><path style="opacity:0.994" fill="#00ba61" d="M 3400.5,271.5 C 3378.16,276.005 3358.16,285.339 3340.5,299.5C 3340.06,299.565 3339.73,299.399 3339.5,299C 3340.5,298 3341.5,297 3342.5,296C 3340.65,294.907 3338.98,293.574 3337.5,292C 3339.9,291.195 3339.73,290.362 3337,289.5C 3336.67,288.5 3336.33,287.5 3336,286.5C 3335.33,287.833 3334.67,287.833 3334,286.5C 3331.94,284.099 3330.27,281.433 3329,278.5C 3327.49,280.065 3325.99,280.399 3324.5,279.5C 3347.93,265.454 3373.27,257.12 3400.5,254.5C 3400.5,260.167 3400.5,265.833 3400.5,271.5 Z"/></g>
<g><path style="opacity:0.996" fill="#00ce65" d="M 3628.5,294.5 C 3617.93,303.464 3606.93,311.964 3595.5,320C 3587.16,326.182 3583.99,334.349 3586,344.5C 3593.14,357.776 3599.47,371.443 3605,385.5C 3617.48,424.474 3617.65,463.474 3605.5,502.5C 3603.78,501.928 3602.28,501.928 3601,502.5C 3600.67,501.167 3600.33,499.833 3600,498.5C 3598.1,497.842 3596.6,496.675 3595.5,495C 3595.83,494.667 3596.17,494.333 3596.5,494C 3592.17,489.34 3587.84,484.673 3583.5,480C 3583.83,479.667 3584.17,479.333 3584.5,479C 3583.5,478.667 3582.5,478.333 3581.5,478C 3582.45,477.282 3582.62,476.449 3582,475.5C 3581.33,474.167 3580.67,474.167 3580,475.5C 3579.68,473.939 3578.85,472.772 3577.5,472C 3577.83,471.667 3578.17,471.333 3578.5,471C 3576.74,467.478 3574.24,463.978 3571,460.5C 3570.67,460.833 3570.33,461.167 3570,461.5C 3566.75,457.572 3563.42,453.572 3560,449.5C 3559.14,451.087 3558.47,452.754 3558,454.5C 3557.62,453.944 3557.12,453.611 3556.5,453.5C 3566.07,423.724 3566.24,393.724 3557,363.5C 3552.59,353.017 3547.92,342.684 3543,332.5C 3542.82,326.376 3544.99,321.209 3549.5,317C 3563.5,306.333 3577.5,295.667 3591.5,285C 3608.23,270.629 3620.57,273.796 3628.5,294.5 Z"/></g>
<g><path style="opacity:0.997" fill="#00ad5e" d="M 3340.5,299.5 C 3328.73,310.27 3318.4,322.27 3309.5,335.5C 3308.23,334.811 3308.23,333.977 3309.5,333C 3307.68,332.021 3306.51,330.521 3306,328.5C 3305,327.167 3304,327.167 3303,328.5C 3303.54,326.553 3303.2,324.553 3302,322.5C 3301.67,323.167 3301.33,323.833 3301,324.5C 3299.13,322.61 3298.29,320.61 3298.5,318.5C 3294.9,316.444 3292.24,313.944 3290.5,311C 3289.49,309.525 3289.49,307.692 3290.5,305.5C 3300.71,295.39 3312.05,286.723 3324.5,279.5C 3325.99,280.399 3327.49,280.065 3329,278.5C 3330.27,281.433 3331.94,284.099 3334,286.5C 3334.67,287.833 3335.33,287.833 3336,286.5C 3336.33,287.5 3336.67,288.5 3337,289.5C 3339.73,290.362 3339.9,291.195 3337.5,292C 3338.98,293.574 3340.65,294.907 3342.5,296C 3341.5,297 3340.5,298 3339.5,299C 3339.73,299.399 3340.06,299.565 3340.5,299.5 Z"/></g>
<g><path style="opacity:0.998" fill="#009b59" d="M 3290.5,305.5 C 3289.49,307.692 3289.49,309.525 3290.5,311C 3292.24,313.944 3294.9,316.444 3298.5,318.5C 3298.29,320.61 3299.13,322.61 3301,324.5C 3301.33,323.833 3301.67,323.167 3302,322.5C 3303.2,324.553 3303.54,326.553 3303,328.5C 3304,327.167 3305,327.167 3306,328.5C 3306.51,330.521 3307.68,332.021 3309.5,333C 3308.23,333.977 3308.23,334.811 3309.5,335.5C 3302.95,348.276 3297.78,361.609 3294,375.5C 3290.96,390.619 3290.13,405.619 3291.5,420.5C 3290.78,420.918 3290.28,421.584 3290,422.5C 3289.49,420.122 3288.82,417.788 3288,415.5C 3287.67,415.833 3287.33,416.167 3287,416.5C 3286.67,415.167 3286.33,413.833 3286,412.5C 3284.87,413.604 3284.04,413.271 3283.5,411.5C 3283.71,410.914 3284.04,410.414 3284.5,410C 3283.45,408.881 3282.28,408.381 3281,408.5C 3279.28,404.397 3276.62,401.064 3273,398.5C 3272.53,396.754 3271.86,395.087 3271,393.5C 3270.67,393.833 3270.33,394.167 3270,394.5C 3269.67,392.833 3269.33,391.167 3269,389.5C 3267.93,390.28 3266.76,390.113 3265.5,389C 3265.83,388.667 3266.17,388.333 3266.5,388C 3260.88,383.699 3256.71,378.199 3254,371.5C 3253.33,370.167 3252.67,370.167 3252,371.5C 3251.4,368.746 3249.9,366.746 3247.5,365.5C 3249.38,360.735 3251.55,356.068 3254,351.5C 3263.75,334.252 3275.91,318.919 3290.5,305.5 Z"/></g>
<g><path style="opacity:1" fill="#008e57" d="M 3247.5,365.5 C 3249.9,366.746 3251.4,368.746 3252,371.5C 3252.67,370.167 3253.33,370.167 3254,371.5C 3256.71,378.199 3260.88,383.699 3266.5,388C 3266.17,388.333 3265.83,388.667 3265.5,389C 3266.76,390.113 3267.93,390.28 3269,389.5C 3269.33,391.167 3269.67,392.833 3270,394.5C 3270.33,394.167 3270.67,393.833 3271,393.5C 3271.86,395.087 3272.53,396.754 3273,398.5C 3276.62,401.064 3279.28,404.397 3281,408.5C 3282.28,408.381 3283.45,408.881 3284.5,410C 3284.04,410.414 3283.71,410.914 3283.5,411.5C 3284.04,413.271 3284.87,413.604 3286,412.5C 3286.33,413.833 3286.67,415.167 3287,416.5C 3287.33,416.167 3287.67,415.833 3288,415.5C 3288.82,417.788 3289.49,420.122 3290,422.5C 3290.28,421.584 3290.78,420.918 3291.5,420.5C 3294.71,456.516 3309.38,486.849 3335.5,511.5C 3349.36,524.64 3365.69,534.64 3384.5,541.5C 3387.64,547.069 3391.3,551.569 3395.5,555C 3395.17,555.333 3394.83,555.667 3394.5,556C 3395.67,556.5 3396.5,557.333 3397,558.5C 3397.33,558.167 3397.67,557.833 3398,557.5C 3398.62,559.116 3399.62,560.449 3401,561.5C 3401.49,563.134 3401.66,564.801 3401.5,566.5C 3404.71,567.164 3406.88,569.164 3408,572.5C 3409.41,573.787 3410.91,574.954 3412.5,576C 3411.65,577.558 3412.32,578.558 3414.5,579C 3413.83,579.333 3413.17,579.667 3412.5,580C 3416.33,583.167 3419.83,586.667 3423,590.5C 3424.3,593.147 3425.63,595.814 3427,598.5C 3427.33,597.833 3427.67,597.167 3428,596.5C 3429.87,600.277 3432.04,603.11 3434.5,605C 3433.72,606.073 3433.89,607.24 3435,608.5C 3435.89,607.289 3436.73,607.289 3437.5,608.5C 3437.29,609.086 3436.96,609.586 3436.5,610C 3438.75,611.745 3440.42,613.912 3441.5,616.5C 3442.68,615.145 3443.68,615.312 3444.5,617C 3444.17,617.333 3443.83,617.667 3443.5,618C 3445.33,620.497 3447.33,622.83 3449.5,625C 3449.17,625.333 3448.83,625.667 3448.5,626C 3451.52,628.023 3453.85,630.69 3455.5,634C 3454.29,635.107 3454.62,635.607 3456.5,635.5C 3434.66,640.325 3412.66,640.658 3390.5,636.5C 3390.92,635.778 3391.58,635.278 3392.5,635C 3389.18,630.185 3385.52,625.685 3381.5,621.5C 3380.29,620.28 3380.29,619.113 3381.5,618C 3379.7,617.028 3378.03,615.861 3376.5,614.5C 3376.81,612.799 3376.31,611.132 3375,609.5C 3374.67,610.167 3374.33,610.833 3374,611.5C 3373.58,607.148 3372.91,606.815 3372,610.5C 3370.89,609.24 3370.72,608.073 3371.5,607C 3369.15,604.438 3367.32,601.605 3366,598.5C 3362.82,596.337 3359.99,593.837 3357.5,591C 3358.35,589.442 3357.68,588.442 3355.5,588C 3355.83,587.667 3356.17,587.333 3356.5,587C 3353.28,586.018 3351.45,583.852 3351,580.5C 3344.97,572.8 3338.47,564.967 3331.5,557C 3332.45,556.282 3332.62,555.449 3332,554.5C 3328.89,553.29 3326.39,551.29 3324.5,548.5C 3323.86,547.268 3323.69,545.935 3324,544.5C 3323.67,544.833 3323.33,545.167 3323,545.5C 3322.04,542.773 3320.38,540.107 3318,537.5C 3316.93,536.809 3315.77,536.309 3314.5,536C 3314.68,532.773 3313.01,530.44 3309.5,529C 3310.63,527.984 3310.3,527.317 3308.5,527C 3309.28,525.927 3309.11,524.76 3308,523.5C 3306.99,523.018 3305.82,522.852 3304.5,523C 3305.28,521.23 3305.11,519.397 3304,517.5C 3303,517.833 3302,518.167 3301,518.5C 3300.38,517.551 3300.55,516.718 3301.5,516C 3300.55,515.517 3299.55,515.351 3298.5,515.5C 3298.66,514.127 3298.49,512.793 3298,511.5C 3297.28,512.451 3296.45,512.617 3295.5,512C 3295.5,510.333 3295.5,508.667 3295.5,507C 3293.91,506.138 3292.25,505.471 3290.5,505C 3290.83,504.667 3291.17,504.333 3291.5,504C 3287.92,501.354 3285.42,497.854 3284,493.5C 3283.33,494.833 3282.67,494.833 3282,493.5C 3281.75,490.823 3280.75,488.49 3279,486.5C 3278.67,486.833 3278.33,487.167 3278,487.5C 3277.5,485.667 3276.33,484.5 3274.5,484C 3275.17,483.667 3275.83,483.333 3276.5,483C 3275.07,482.535 3273.9,481.701 3273,480.5C 3272.67,480.833 3272.33,481.167 3272,481.5C 3271.29,476.62 3268.79,473.12 3264.5,471C 3265.17,470.667 3265.83,470.333 3266.5,470C 3264.67,469.5 3263.5,468.333 3263,466.5C 3262.67,466.833 3262.33,467.167 3262,467.5C 3260.22,464.382 3258.05,461.549 3255.5,459C 3256.17,458.667 3256.83,458.333 3257.5,458C 3253.99,454.825 3250.83,451.325 3248,447.5C 3243.47,441.542 3238.47,435.208 3233,428.5C 3232.67,428.833 3232.33,429.167 3232,429.5C 3231.5,427.19 3231.34,424.857 3231.5,422.5C 3233.27,402.394 3238.61,383.394 3247.5,365.5 Z"/></g>
<g><path style="opacity:1" fill="#038554" d="M 3231.5,422.5 C 3231.34,424.857 3231.5,427.19 3232,429.5C 3232.33,429.167 3232.67,428.833 3233,428.5C 3238.47,435.208 3243.47,441.542 3248,447.5C 3250.83,451.325 3253.99,454.825 3257.5,458C 3256.83,458.333 3256.17,458.667 3255.5,459C 3258.05,461.549 3260.22,464.382 3262,467.5C 3262.33,467.167 3262.67,466.833 3263,466.5C 3263.5,468.333 3264.67,469.5 3266.5,470C 3265.83,470.333 3265.17,470.667 3264.5,471C 3268.79,473.12 3271.29,476.62 3272,481.5C 3272.33,481.167 3272.67,480.833 3273,480.5C 3273.9,481.701 3275.07,482.535 3276.5,483C 3275.83,483.333 3275.17,483.667 3274.5,484C 3276.33,484.5 3277.5,485.667 3278,487.5C 3278.33,487.167 3278.67,486.833 3279,486.5C 3280.75,488.49 3281.75,490.823 3282,493.5C 3282.67,494.833 3283.33,494.833 3284,493.5C 3285.42,497.854 3287.92,501.354 3291.5,504C 3291.17,504.333 3290.83,504.667 3290.5,505C 3292.25,505.471 3293.91,506.138 3295.5,507C 3295.5,508.667 3295.5,510.333 3295.5,512C 3296.45,512.617 3297.28,512.451 3298,511.5C 3298.49,512.793 3298.66,514.127 3298.5,515.5C 3299.55,515.351 3300.55,515.517 3301.5,516C 3300.55,516.718 3300.38,517.551 3301,518.5C 3302,518.167 3303,517.833 3304,517.5C 3305.11,519.397 3305.28,521.23 3304.5,523C 3305.82,522.852 3306.99,523.018 3308,523.5C 3309.11,524.76 3309.28,525.927 3308.5,527C 3310.3,527.317 3310.63,527.984 3309.5,529C 3313.01,530.44 3314.68,532.773 3314.5,536C 3315.77,536.309 3316.93,536.809 3318,537.5C 3320.38,540.107 3322.04,542.773 3323,545.5C 3323.33,545.167 3323.67,544.833 3324,544.5C 3323.69,545.935 3323.86,547.268 3324.5,548.5C 3326.39,551.29 3328.89,553.29 3332,554.5C 3332.62,555.449 3332.45,556.282 3331.5,557C 3338.47,564.967 3344.97,572.8 3351,580.5C 3351.45,583.852 3353.28,586.018 3356.5,587C 3356.17,587.333 3355.83,587.667 3355.5,588C 3357.68,588.442 3358.35,589.442 3357.5,591C 3359.99,593.837 3362.82,596.337 3366,598.5C 3367.32,601.605 3369.15,604.438 3371.5,607C 3370.72,608.073 3370.89,609.24 3372,610.5C 3372.91,606.815 3373.58,607.148 3374,611.5C 3374.33,610.833 3374.67,610.167 3375,609.5C 3376.31,611.132 3376.81,612.799 3376.5,614.5C 3378.03,615.861 3379.7,617.028 3381.5,618C 3380.29,619.113 3380.29,620.28 3381.5,621.5C 3385.52,625.685 3389.18,630.185 3392.5,635C 3391.58,635.278 3390.92,635.778 3390.5,636.5C 3367.01,632.391 3345.01,624.225 3324.5,612C 3256.52,567.194 3225.52,504.028 3231.5,422.5 Z"/></g>
<g><path style="opacity:1" fill="#00c263" d="M 3605.5,502.5 C 3599.23,523.38 3589.56,542.38 3576.5,559.5C 3573.61,558.101 3572.11,555.768 3572,552.5C 3570.64,553.258 3569.47,552.758 3568.5,551C 3566.06,545.807 3562.4,540.974 3557.5,536.5C 3555.45,532.504 3552.95,528.838 3550,525.5C 3548.33,526.34 3548.17,525.84 3549.5,524C 3546.24,521.98 3544.08,519.146 3543,515.5C 3542.09,516.654 3541.25,516.487 3540.5,515C 3541.55,513.284 3540.89,512.284 3538.5,512C 3538.83,511.667 3539.17,511.333 3539.5,511C 3538.02,508.852 3536.02,507.518 3533.5,507C 3533.5,505.667 3533.5,504.333 3533.5,503C 3532.58,502.626 3531.75,502.126 3531,501.5C 3529.04,504.463 3526.71,507.129 3524,509.5C 3523.6,509.272 3523.43,508.938 3523.5,508.5C 3538.35,492.462 3549.35,474.129 3556.5,453.5C 3557.12,453.611 3557.62,453.944 3558,454.5C 3558.47,452.754 3559.14,451.087 3560,449.5C 3563.42,453.572 3566.75,457.572 3570,461.5C 3570.33,461.167 3570.67,460.833 3571,460.5C 3574.24,463.978 3576.74,467.478 3578.5,471C 3578.17,471.333 3577.83,471.667 3577.5,472C 3578.85,472.772 3579.68,473.939 3580,475.5C 3580.67,474.167 3581.33,474.167 3582,475.5C 3582.62,476.449 3582.45,477.282 3581.5,478C 3582.5,478.333 3583.5,478.667 3584.5,479C 3584.17,479.333 3583.83,479.667 3583.5,480C 3587.84,484.673 3592.17,489.34 3596.5,494C 3596.17,494.333 3595.83,494.667 3595.5,495C 3596.6,496.675 3598.1,497.842 3600,498.5C 3600.33,499.833 3600.67,501.167 3601,502.5C 3602.28,501.928 3603.78,501.928 3605.5,502.5 Z"/></g>
<g><path style="opacity:0.004" fill="#000000" d="M 3335.5,510.5 C 3336.83,511.167 3336.83,511.167 3335.5,510.5 Z"/></g>
<g><path style="opacity:0.999" fill="#00b35f" d="M 3576.5,559.5 C 3566.19,574.147 3553.85,586.814 3539.5,597.5C 3538.83,596.153 3538.83,594.986 3539.5,594C 3538.75,592.513 3537.91,592.346 3537,593.5C 3534.65,588.471 3531.48,583.971 3527.5,580C 3527.83,579.667 3528.17,579.333 3528.5,579C 3527.07,577.018 3524.74,575.352 3521.5,574C 3523.79,573.016 3523.46,572.183 3520.5,571.5C 3518.13,567.602 3515.13,564.102 3511.5,561C 3511.83,560.667 3512.17,560.333 3512.5,560C 3510.3,557.798 3508.47,555.298 3507,552.5C 3505.5,551.333 3504,550.167 3502.5,549C 3503.17,548.667 3503.83,548.333 3504.5,548C 3501.17,544.635 3497.83,541.302 3494.5,538C 3495.45,537.282 3495.62,536.449 3495,535.5C 3494.28,536.451 3493.45,536.617 3492.5,536C 3493.45,535.282 3493.62,534.449 3493,533.5C 3490.12,534.456 3487.46,535.789 3485,537.5C 3484.28,536.956 3483.78,536.289 3483.5,535.5C 3498.45,528.875 3511.79,519.875 3523.5,508.5C 3523.43,508.938 3523.6,509.272 3524,509.5C 3526.71,507.129 3529.04,504.463 3531,501.5C 3531.75,502.126 3532.58,502.626 3533.5,503C 3533.5,504.333 3533.5,505.667 3533.5,507C 3536.02,507.518 3538.02,508.852 3539.5,511C 3539.17,511.333 3538.83,511.667 3538.5,512C 3540.89,512.284 3541.55,513.284 3540.5,515C 3541.25,516.487 3542.09,516.654 3543,515.5C 3544.08,519.146 3546.24,521.98 3549.5,524C 3548.17,525.84 3548.33,526.34 3550,525.5C 3552.95,528.838 3555.45,532.504 3557.5,536.5C 3562.4,540.974 3566.06,545.807 3568.5,551C 3569.47,552.758 3570.64,553.258 3572,552.5C 3572.11,555.768 3573.61,558.101 3576.5,559.5 Z"/></g>
<g><path style="opacity:0.997" fill="#009859" d="M 3384.5,541.5 C 3393.94,544.463 3403.61,546.463 3413.5,547.5C 3415.4,549.098 3417.56,550.432 3420,551.5C 3420.33,551.167 3420.67,550.833 3421,550.5C 3421.81,553.611 3423.65,555.778 3426.5,557C 3429.54,562.796 3433.71,568.296 3439,573.5C 3439.62,574.449 3439.45,575.282 3438.5,576C 3440.5,577.667 3442.5,579.333 3444.5,581C 3443.35,581.914 3443.51,582.747 3445,583.5C 3445.33,583.167 3445.67,582.833 3446,582.5C 3447.97,585.325 3449.8,588.325 3451.5,591.5C 3454.95,596.448 3458.95,600.948 3463.5,605C 3463.17,605.333 3462.83,605.667 3462.5,606C 3464.86,606.589 3465.86,608.089 3465.5,610.5C 3467.94,610.119 3468.61,610.786 3467.5,612.5C 3470.75,614.915 3473.42,617.748 3475.5,621C 3476.49,623.328 3478.49,625.328 3481.5,627C 3480.75,627.671 3480.41,628.504 3480.5,629.5C 3472.88,632.628 3464.88,634.628 3456.5,635.5C 3454.62,635.607 3454.29,635.107 3455.5,634C 3453.85,630.69 3451.52,628.023 3448.5,626C 3448.83,625.667 3449.17,625.333 3449.5,625C 3447.33,622.83 3445.33,620.497 3443.5,618C 3443.83,617.667 3444.17,617.333 3444.5,617C 3443.68,615.312 3442.68,615.145 3441.5,616.5C 3440.42,613.912 3438.75,611.745 3436.5,610C 3436.96,609.586 3437.29,609.086 3437.5,608.5C 3436.73,607.289 3435.89,607.289 3435,608.5C 3433.89,607.24 3433.72,606.073 3434.5,605C 3432.04,603.11 3429.87,600.277 3428,596.5C 3427.67,597.167 3427.33,597.833 3427,598.5C 3425.63,595.814 3424.3,593.147 3423,590.5C 3419.83,586.667 3416.33,583.167 3412.5,580C 3413.17,579.667 3413.83,579.333 3414.5,579C 3412.32,578.558 3411.65,577.558 3412.5,576C 3410.91,574.954 3409.41,573.787 3408,572.5C 3406.88,569.164 3404.71,567.164 3401.5,566.5C 3401.66,564.801 3401.49,563.134 3401,561.5C 3399.62,560.449 3398.62,559.116 3398,557.5C 3397.67,557.833 3397.33,558.167 3397,558.5C 3396.5,557.333 3395.67,556.5 3394.5,556C 3394.83,555.667 3395.17,555.333 3395.5,555C 3391.3,551.569 3387.64,547.069 3384.5,541.5 Z"/></g>
<g><path style="opacity:0.999" fill="#00a75c" d="M 3539.5,597.5 C 3538.71,598.794 3537.71,599.961 3536.5,601C 3525.85,608.82 3514.52,615.32 3502.5,620.5C 3502.73,619.331 3502.23,617.997 3501,616.5C 3500.67,616.833 3500.33,617.167 3500,617.5C 3499.49,614.995 3497.99,613.495 3495.5,613C 3496.17,612.667 3496.83,612.333 3497.5,612C 3496.17,611.667 3494.83,611.333 3493.5,611C 3493.83,609.497 3493.83,608.164 3493.5,607C 3492.5,606.667 3491.5,606.333 3490.5,606C 3490.83,605.667 3491.17,605.333 3491.5,605C 3488.66,601.328 3485.66,597.828 3482.5,594.5C 3480.31,591.721 3478.64,588.721 3477.5,585.5C 3476.5,585.5 3475.5,585.5 3474.5,585.5C 3474.76,584.022 3474.43,582.689 3473.5,581.5C 3471.57,580.855 3470.4,579.521 3470,577.5C 3469.67,577.833 3469.33,578.167 3469,578.5C 3464.98,570.996 3460.65,564.329 3456,558.5C 3454.64,559.258 3453.47,558.758 3452.5,557C 3453.17,556.667 3453.83,556.333 3454.5,556C 3451,553.666 3448,550.832 3445.5,547.5C 3458.84,545.336 3471.51,541.336 3483.5,535.5C 3483.78,536.289 3484.28,536.956 3485,537.5C 3487.46,535.789 3490.12,534.456 3493,533.5C 3493.62,534.449 3493.45,535.282 3492.5,536C 3493.45,536.617 3494.28,536.451 3495,535.5C 3495.62,536.449 3495.45,537.282 3494.5,538C 3497.83,541.302 3501.17,544.635 3504.5,548C 3503.83,548.333 3503.17,548.667 3502.5,549C 3504,550.167 3505.5,551.333 3507,552.5C 3508.47,555.298 3510.3,557.798 3512.5,560C 3512.17,560.333 3511.83,560.667 3511.5,561C 3515.13,564.102 3518.13,567.602 3520.5,571.5C 3523.46,572.183 3523.79,573.016 3521.5,574C 3524.74,575.352 3527.07,577.018 3528.5,579C 3528.17,579.333 3527.83,579.667 3527.5,580C 3531.48,583.971 3534.65,588.471 3537,593.5C 3537.91,592.346 3538.75,592.513 3539.5,594C 3538.83,594.986 3538.83,596.153 3539.5,597.5 Z"/></g>
<g><path style="opacity:0.998" fill="#009f5b" d="M 3413.5,547.5 C 3424.16,548.729 3434.83,548.729 3445.5,547.5C 3448,550.832 3451,553.666 3454.5,556C 3453.83,556.333 3453.17,556.667 3452.5,557C 3453.47,558.758 3454.64,559.258 3456,558.5C 3460.65,564.329 3464.98,570.996 3469,578.5C 3469.33,578.167 3469.67,577.833 3470,577.5C 3470.4,579.521 3471.57,580.855 3473.5,581.5C 3474.43,582.689 3474.76,584.022 3474.5,585.5C 3475.5,585.5 3476.5,585.5 3477.5,585.5C 3478.64,588.721 3480.31,591.721 3482.5,594.5C 3485.66,597.828 3488.66,601.328 3491.5,605C 3491.17,605.333 3490.83,605.667 3490.5,606C 3491.5,606.333 3492.5,606.667 3493.5,607C 3493.83,608.164 3493.83,609.497 3493.5,611C 3494.83,611.333 3496.17,611.667 3497.5,612C 3496.83,612.333 3496.17,612.667 3495.5,613C 3497.99,613.495 3499.49,614.995 3500,617.5C 3500.33,617.167 3500.67,616.833 3501,616.5C 3502.23,617.997 3502.73,619.331 3502.5,620.5C 3495.75,624.647 3488.42,627.647 3480.5,629.5C 3480.41,628.504 3480.75,627.671 3481.5,627C 3478.49,625.328 3476.49,623.328 3475.5,621C 3473.42,617.748 3470.75,614.915 3467.5,612.5C 3468.61,610.786 3467.94,610.119 3465.5,610.5C 3465.86,608.089 3464.86,606.589 3462.5,606C 3462.83,605.667 3463.17,605.333 3463.5,605C 3458.95,600.948 3454.95,596.448 3451.5,591.5C 3449.8,588.325 3447.97,585.325 3446,582.5C 3445.67,582.833 3445.33,583.167 3445,583.5C 3443.51,582.747 3443.35,581.914 3444.5,581C 3442.5,579.333 3440.5,577.667 3438.5,576C 3439.45,575.282 3439.62,574.449 3439,573.5C 3433.71,568.296 3429.54,562.796 3426.5,557C 3423.65,555.778 3421.81,553.611 3421,550.5C 3420.67,550.833 3420.33,551.167 3420,551.5C 3417.56,550.432 3415.4,549.098 3413.5,547.5 Z"/></g>
</svg>
