<?xml version="1.0" standalone="no"?>
<!DOCTYPE svg PUBLIC "-//W3C//DTD SVG 20010904//EN"
 "http://www.w3.org/TR/2001/REC-SVG-20010904/DTD/svg10.dtd">
<svg version="1.0" xmlns="http://www.w3.org/2000/svg"
 width="1600" height="499" viewBox="0 0 1600.000000 499.000000"
 preserveAspectRatio="xMidYMid meet">

<g transform="translate(0.000000,499.000000) scale(0.100000,-0.100000)"
fill="#000000" stroke="none">
<path d="M1580 2981 l0 -821 205 0 205 0 0 265 0 265 49 0 50 0 78 -136 c123
-215 221 -307 387 -360 67 -22 106 -27 229 -32 l147 -5 -2 194 -3 194 -90 5
c-65 4 -102 12 -131 28 -42 21 -144 127 -143 146 0 6 28 25 62 41 82 40 185
141 226 222 46 92 64 181 58 283 -15 238 -167 427 -407 506 -49 16 -105 18
-487 22 l-433 3 0 -820z m827 403 c115 -86 107 -249 -17 -311 -41 -21 -58 -23
-222 -23 l-178 0 0 181 0 180 194 -3 c179 -3 197 -5 223 -24z"/>
<path d="M8200 2980 l0 -820 200 0 200 0 2 313 3 312 293 3 292 2 0 -315 0
-315 205 0 205 0 0 820 0 820 -205 0 -205 0 0 -310 0 -310 -295 0 -295 0 0
310 0 310 -200 0 -200 0 0 -820z"/>
<path d="M12425 3428 c-3 -7 -6 -42 -7 -77 l-3 -65 -72 -12 c-158 -26 -325
-148 -401 -291 -41 -78 -72 -198 -72 -278 0 -81 31 -201 72 -278 39 -73 143
-182 212 -222 266 -155 595 -87 771 160 60 83 91 162 106 266 11 72 10 98 -4
172 -19 105 -72 221 -102 225 -21 3 -151 -82 -168 -109 -7 -11 -2 -35 17 -81
48 -122 28 -258 -52 -348 -20 -23 -47 -42 -58 -43 -13 -1 -20 -6 -17 -14 3 -7
0 -13 -6 -13 -15 0 -91 77 -91 93 0 9 2 9 9 -1 7 -11 9 -10 14 3 6 14 2 15
-31 8 -20 -4 -63 -7 -95 -6 -171 5 -286 199 -215 365 12 28 17 53 12 56 -12 9
-16 32 -6 32 5 0 22 11 38 25 31 27 121 61 132 51 3 -4 8 -36 10 -71 4 -52 8
-66 23 -70 23 -8 14 -14 202 127 122 92 157 123 157 141 -1 17 -40 51 -165
145 -156 115 -200 138 -210 110z"/>
<path d="M14445 3310 c-93 -14 -163 -48 -224 -109 -78 -76 -104 -144 -99 -256
7 -173 108 -271 347 -339 152 -44 191 -70 191 -129 0 -32 -47 -72 -94 -81 -71
-13 -152 30 -171 92 -6 21 -10 22 -152 22 l-146 0 7 -52 c23 -183 204 -318
426 -318 180 0 324 80 392 218 30 60 33 75 32 152 0 106 -23 159 -100 229 -57
52 -146 93 -273 126 -157 40 -212 109 -139 170 29 24 38 27 90 23 63 -5 101
-30 112 -74 6 -24 7 -24 153 -24 l146 0 -7 47 c-21 152 -153 274 -326 302 -72
12 -92 12 -165 1z"/>
<path d="M3087 3293 c-4 -3 -7 -260 -7 -570 l0 -563 390 0 391 0 -3 133 -3
132 -242 3 -243 2 0 85 0 85 210 0 210 0 0 135 0 135 -210 0 -210 0 0 80 0 80
240 0 240 0 0 135 0 135 -378 0 c-208 0 -382 -3 -385 -7z"/>
<path d="M4010 2730 l0 -570 140 0 140 0 0 210 0 210 195 0 195 0 0 135 0 135
-195 0 -195 0 0 90 0 90 225 0 225 0 0 135 0 135 -365 0 -365 0 0 -570z"/>
<path d="M4870 2922 c0 -411 4 -446 58 -546 176 -323 688 -311 848 20 48 100
55 178 52 569 l-3 330 -142 3 -143 3 0 -366 c0 -306 -2 -372 -15 -402 -21 -49
-41 -71 -90 -95 -91 -47 -205 -14 -255 74 l-25 43 -3 373 -3 372 -140 0 -139
0 0 -378z"/>
<path d="M6010 2731 l0 -571 140 0 140 0 2 183 3 182 35 3 c35 2 36 1 94 -103
37 -66 78 -123 108 -151 86 -80 200 -118 340 -112 l73 3 -2 120 c-2 66 -3 126
-3 133 0 8 -17 12 -52 12 -66 0 -128 30 -169 81 -17 22 -30 41 -28 43 2 2 22
13 44 24 69 35 122 89 157 160 27 55 34 80 36 148 3 54 -1 100 -12 136 -33
114 -132 213 -255 254 -49 16 -96 19 -353 22 l-298 4 0 -571z m560 284 c68
-35 91 -118 51 -179 -33 -49 -54 -55 -198 -56 l-133 0 0 109 c0 60 3 116 6
125 9 22 231 23 274 1z"/>
<path d="M7090 2730 l0 -571 353 3 c333 3 354 4 398 24 103 48 168 139 177
249 9 124 -36 233 -125 301 l-42 32 22 15 c13 8 38 43 57 78 30 56 34 73 34
139 0 126 -51 207 -162 262 l-67 33 -322 3 -323 3 0 -571z m535 300 c29 -11
54 -60 47 -95 -2 -13 -15 -34 -29 -47 -23 -21 -35 -23 -154 -26 l-129 -4 0 91
0 91 119 0 c66 0 131 -4 146 -10z m71 -444 c38 -38 43 -70 19 -116 -24 -47
-48 -53 -207 -58 l-148 -4 0 106 0 106 151 0 151 0 34 -34z"/>
<path d="M9850 2730 l0 -570 385 0 385 0 0 135 0 135 -240 0 -240 0 0 85 0 85
210 0 210 0 0 135 0 135 -210 0 -210 0 0 80 0 80 235 0 235 0 0 135 0 135
-380 0 -380 0 0 -570z"/>
<path d="M10770 2730 l0 -570 145 0 145 0 0 185 0 185 33 0 c31 0 36 -5 88
-96 29 -53 73 -118 96 -143 73 -83 203 -131 350 -131 l83 0 0 135 0 135 -57 0
c-73 0 -133 29 -173 83 l-30 41 53 28 c142 78 213 223 187 383 -19 120 -90
225 -189 279 -87 47 -158 56 -458 56 l-273 0 0 -570z m566 284 c43 -20 64 -59
64 -116 0 -94 -44 -118 -215 -118 l-125 0 0 125 0 125 121 0 c91 0 129 -4 155
-16z"/>
<path d="M13237 3293 c-4 -3 -7 -260 -7 -570 l0 -563 390 0 391 0 -3 133 -3
132 -242 3 -243 2 0 85 0 85 210 0 210 0 0 135 0 135 -210 0 -210 0 0 80 0 80
240 0 240 0 0 135 0 135 -378 0 c-208 0 -382 -3 -385 -7z"/>
</g>
</svg>
